<svg width="120" height="32" viewBox="0 0 955.2 344.2" xmlns="http://www.w3.org/2000/svg" xmlns:xlink="http://www.w3.org/1999/xlink">
  <linearGradient id="c" gradientUnits="userSpaceOnUse" x1="31.9" x2="167.2" y1="130.1" y2="130.1">
    <stop offset="0" stop-color="#50d296"/>
    <stop offset="1" stop-color="#91e6c8"/>
  </linearGradient>
  <linearGradient id="a">
    <stop offset="0" stop-color="#50d296"/>
    <stop offset="1" stop-color="#91e6c8"/>
  </linearGradient>
  <linearGradient id="d" gradientUnits="userSpaceOnUse" x1="131.8" x2="243.7" xlink:href="#a" y1="241.7" y2="241.7"/>
  <linearGradient id="e" gradientUnits="userSpaceOnUse" x1="165.8" x2="171.6" xlink:href="#a" y1="160.3" y2="160.3"/>
  <linearGradient id="b">
    <stop offset="0" stop-color="#55cd96"/>
    <stop offset="1" stop-color="#41c387"/>
  </linearGradient>
  <linearGradient id="f" gradientUnits="userSpaceOnUse" x1="87.4" x2="203.8" xlink:href="#b" y1="181.3" y2="181.3"/>
  <linearGradient id="g" gradientUnits="userSpaceOnUse" x1="32.4" x2="71.2" xlink:href="#b" y1="204.8" y2="204.8"/>
  <g fill="currentColor">
    <path d="M342.4 179.3L329 193.6v31.7h-35.6V98.4H329v52.8l49-52.8h39.6l-51.8 56.2 54.5 70.7h-41.7z"/>
    <path d="M522.2 127v98.3h-32.8v-9.8c-6.4 7.6-16.1 11.4-29 11.4a45.7 45.7 0 01-41.8-24.1c-4.3-7.7-6.4-16.6-6.4-26.8s2.1-19 6.4-26.7c4.3-7.7 10-13.6 17.4-17.7s15.4-6.2 24.4-6.2c11.6 0 20.7 3.4 27.3 10.2V127zm-39.7 66.3c3.9-4.2 5.8-10 5.8-17.3 0-7.2-2-13-5.8-17s-8.8-6.2-14.9-6.2-11 2-14.8 6.2a23.9 23.9 0 00-5.8 17c0 7.4 1.9 13.1 5.8 17.3s8.8 6.3 14.8 6.3 11-2.1 14.9-6.3zM626.7 131.6c7.3 4.1 13 10 17.4 17.7s6.4 16.5 6.4 26.7-2.1 19.1-6.4 26.8c-4.3 7.8-10.1 13.7-17.4 17.9s-15.5 6.2-24.4 6.2c-13 0-22.6-3.8-29-11.4v9.8h-32.8V90.8h34.4v44.8a36.6 36.6 0 0127.4-10.2c9 0 17 2.1 24.4 6.2zm-16.8 61.7c3.9-4.2 5.8-10 5.8-17.3 0-7.2-2-13-5.8-17s-8.8-6.2-14.9-6.2-11 2-14.8 6.2a23.9 23.9 0 00-5.8 17c0 7.4 1.9 13.1 5.8 17.3s8.8 6.3 14.8 6.3 11-2.1 14.9-6.3zM664.5 111a16.9 16.9 0 01-5.8-13.1c0-5.2 1.9-9.6 5.8-13 3.8-3.6 8.9-5.3 15.2-5.3s11.3 1.6 15.2 5a16 16 0 015.8 12.7c0 5.5-2 10-5.8 13.5-3.9 3.6-9 5.4-15.2 5.4-6.3 0-11.4-1.8-15.2-5.3zm-2 16h34.4v98.3h-34.4zM727.8 224.1c-8-1.8-14.4-4.3-19.2-7.3l10.3-23.6a71.3 71.3 0 0034.3 9c5.5.1 9.5-.5 11.9-1.6 2.3-1.2 3.5-2.8 3.5-5s-1.4-3.7-4.3-4.6c-2.8-1-7.3-1.8-13.5-2.7-7.8-1-14.5-2.2-20-3.8-5.5-1.5-10.2-4.4-14.2-8.7s-6-10.1-6-17.7c0-6.3 1.8-11.9 5.6-16.8 3.7-4.9 9.2-8.8 16.4-11.6s15.8-4.3 25.8-4.3c7.2 0 14.2.8 21.2 2.2s13 3.5 17.6 6.2L787 157.2a57.3 57.3 0 00-28.3-7.3c-5.4 0-9.4.6-12 2-2.5 1.2-3.8 2.8-3.8 4.9 0 2.3 1.4 3.9 4.2 4.8 2.8.9 7.4 1.8 13.8 2.8 8 1.2 14.8 2.6 20.1 4.2s10 4.4 13.9 8.6 5.9 10 5.9 17.5c0 6.1-2 11.7-5.7 16.5-3.7 5-9.2 8.8-16.5 11.6s-16.1 4.1-26.4 4.1c-8.2 0-16.3-.9-24.3-2.8zM916.2 127v98.3h-32.8v-9.8c-6.4 7.6-16 11.4-29 11.4-9 0-17-2-24.4-6.2s-13.1-10.1-17.4-17.9-6.4-16.6-6.4-26.8 2.1-19 6.4-26.7c4.3-7.7 10-13.6 17.4-17.7s15.4-6.2 24.4-6.2c11.6 0 20.7 3.4 27.4 10.2V127zm-39.7 66.3c3.9-4.2 5.8-10 5.8-17.3 0-7.2-2-13-5.8-17s-8.8-6.2-14.9-6.2-11 2-14.8 6.2a23.9 23.9 0 00-5.8 17c0 7.4 2 13.1 5.8 17.3s8.8 6.3 14.8 6.3 11-2.1 14.9-6.3z"/>
  </g>
  <path d="M79.3 40.2a61.8 61.8 0 01-16.5 38.2 112 112 0 00-30.4 86.2v.2a69.5 69.5 0 0069 60.5c7.3 0 14.3-1.9 20.4-5.2a36 36 0 00-23.4-11 94.8 94.8 0 011.5-91.5l.7-1.2.7-1.1.7-1.1c5.9-9.4 14-16.5 23.1-21.1l.7-.4a99.6 99.6 0 0028.5-21c5.8-6 10-13 12.9-20.3a100.6 100.6 0 00-87.9-11.2zM128 66a8.4 8.4 0 110-16.7 8.4 8.4 0 010 16.7z" fill="url(#c)"/>
  <path d="M131.8 245h-.1" fill="none"/>
  <path d="M243.7 225c0 50.6-38.1 94-89.5 99.7a92.4 92.4 0 0039.4-124c-12-23.1-37.6-30-61.8-30a36 36 0 0010.4-1.5c8-2 16.5-5.8 23.7-8a57 57 0 018.9-2.1 62.2 62.2 0 0169 65.9z" fill="url(#d)"/>
  <path d="M171.6 159.6c-2 .3-4 .9-5.8 1.5" fill="url(#e)"/>
  <path d="M203.8 242.8v1.9a36 36 0 00-72.1.2 95.3 95.3 0 01-31.8-127.3 36 36 0 0031.8 53c24.3 0 49.9 7 61.9 30 7 13.5 10.2 28 10.2 42.2z" fill="url(#f)"/>
  <path d="M71.2 218.4A36 36 0 0059.6 245l-1.6-2.4-1.4-2.5-.1-.1a355 355 0 01-2.8-4.9l-.2-.3-2.5-4.8-1.3-2.6-1.2-2.6-1.2-2.7-1.2-2.6-1.1-2.7-.1-.3a150.4 150.4 0 01-2.3-5.8c0-.2 0-.4-.2-.5l-.8-2.3-.8-2.4-.3-1-.7-2.1-.2-.8-.6-2.1-.2-.6-.6-2.2-.8-2.9-.7-2.8a121.4 121.4 0 01-2.8-14v-.5l-.4-2.4-.4-3-.2-1.4-.2-2-.3-2.7v-.2c3 23.8 18 43.8 38.8 53.7z" fill="url(#g)"/>
</svg>
