<?xml version="1.0" standalone="no"?>
<!DOCTYPE svg PUBLIC "-//W3C//DTD SVG 20010904//EN"
 "http://www.w3.org/TR/2001/REC-SVG-20010904/DTD/svg10.dtd">
<svg version="1.0" xmlns="http://www.w3.org/2000/svg"
 width="344.000000pt" height="344.000000pt" viewBox="0 0 344.000000 344.000000"
 preserveAspectRatio="xMidYMid meet">
<metadata>
Created by potrace 1.14, written by Peter Selinger 2001-2017
</metadata>
<g transform="translate(0.000000,344.000000) scale(0.100000,-0.100000)"
fill="#000000" stroke="none">
<path d="M1295 3080 c-27 -4 -78 -15 -111 -25 l-61 -17 -6 -51 c-14 -118 -70
-230 -173 -348 -73 -84 -83 -96 -118 -153 -165 -258 -210 -546 -140 -896 39
-193 140 -449 226 -571 l17 -24 1 30 c1 17 3 38 5 48 6 33 52 122 79 154 l27
32 45 -20 c65 -29 168 -49 258 -49 l78 0 41 -46 c38 -44 162 -144 177 -144 4
0 10 21 14 47 15 110 99 223 203 270 71 33 194 41 261 18 134 -46 234 -170
248 -306 7 -73 -18 -225 -54 -329 -67 -190 -193 -350 -364 -461 -69 -44 -58
-50 46 -23 245 62 446 198 588 399 126 177 187 377 183 595 -4 197 -60 336
-185 460 -120 120 -266 181 -435 181 -82 0 -103 -4 -235 -50 -207 -71 -254
-78 -344 -55 -78 21 -118 44 -177 104 -109 111 -131 277 -55 415 20 37 43 74
51 82 8 8 20 22 27 32 24 32 123 106 188 140 170 88 309 217 376 350 26 53 26
55 8 68 -64 49 -222 111 -344 136 -73 15 -269 19 -345 7z m348 -142 c54 -21
64 -88 20 -132 -22 -22 -33 -26 -61 -21 -45 7 -52 12 -67 48 -21 51 12 112 62
115 10 0 31 -4 46 -10z"/>
</g>
</svg>
